<svg xmlns="http://www.w3.org/2000/svg" width="21.395" height="21.409"><path fill="#231f20" d="m15.729 17.386-.421-.131c.072-.306.139-.641.2-.994.293-.201.586-.408.874-.62.015.183.025.36.034.535-.224.434-.453.841-.687 1.21zM7.876 3.645c.167-.129.334-.249.497-.364.007-.085.015-.165.023-.243.163-.063.324-.125.483-.182.191.252.411.566.65.93-.076.079-.152.16-.229.243-.258.088-.52.18-.781.273.03-.283.063-.546.1-.783-.101.162-.203.334-.307.514l-.535.02c.032-.143.065-.279.099-.408zm13.407 6.903c-.255.311-.555.64-.891.983-.006.206-.013.414-.021.62-.127.178-.258.357-.396.539a31.783 31.783 0 0 0-.452-1.664 26.334 26.334 0 0 0-.613-.926 87.256 87.256 0 0 0-1.632-.386c-.171-.164-.347-.327-.525-.492l-.256.154c.135.326.266.652.392.979a55.4 55.4 0 0 0 .575-.317c.254.218.499.433.734.643-.696.487-1.464.999-2.273 1.516a67.704 67.704 0 0 0-1.253-2.601l-.276.044a70.358 70.358 0 0 1 1.28 3.09c.421-.213.832-.425 1.229-.634-.136.471-.282.94-.436 1.399-.42.394-.854.782-1.291 1.161.021.534.032 1.043.03 1.514-.243.167-.485.329-.729.486-.498.668-.99 1.247-1.457 1.693-.392.052-.782.098-1.169.143a22.406 22.406 0 0 1-1.012-1.819c.089-.339.184-.701.28-1.084-.237-.666-.488-1.393-.742-2.15-.851.052-1.693.097-2.516.134a62.514 62.514 0 0 1-1.404-1.364c.06-.736.135-1.488.222-2.236.447-.558.909-1.116 1.373-1.664.876-.162 1.771-.319 2.66-.468l.167.692c.365.233.731.471 1.098.709l.414-.579c.556.144 1.107.29 1.649.437l.411-.249c.056-.204.108-.405.161-.604-.367-.068-.74-.138-1.116-.206l-.382-.618c-.091-.043-.18-.087-.269-.132-.07.253-.141.511-.215.772-.172-.21-.343-.417-.515-.622.009-.17.018-.338.024-.504a60.347 60.347 0 0 0-.671-.496 45.574 45.574 0 0 0-.397-.183c.013.159.023.321.036.485.277.176.558.355.839.538-.142.156-.285.316-.43.479l-.608-.767c-.145-.157-.287-.312-.43-.464a80.91 80.91 0 0 0-1.002.472c-.24.346-.483.702-.725 1.065-.354-.05-.704-.098-1.051-.145a66.163 66.163 0 0 1-.003-1.255c.437.018.879.038 1.327.062-.134-.212-.266-.42-.396-.622a47.61 47.61 0 0 0-.225-.483 66.71 66.71 0 0 1 1.002-.299c.19-.213.376-.418.561-.614l.438-.028a23.512 23.512 0 0 0-.085-.319l.28-.283c.07.152.141.311.212.476.406.008.812.02 1.217.033.104-.23.201-.448.295-.652l.462.121a15.068 15.068 0 0 0-.191-.412c.224-.046.442-.09.66-.132a10.596 10.596 0 0 0-.236-.17 40.8 40.8 0 0 0-.592.1 11.802 11.802 0 0 0-.248-.33l-.032-.001a.267.267 0 0 1 .013-.023 2.594 2.594 0 0 0-.102-.124c.075-.031.15-.062.223-.09.059-.1.107-.174.16-.255l-.22-.019a6.698 6.698 0 0 0-.32.21c-.088.114-.18.243-.276.381.12.079.241.159.363.243-.101.204-.205.43-.317.672l-.548.158a19.669 19.669 0 0 0-.306-.699c-.207.081-.419.164-.632.252l-.293-.127c.022-.213.046-.41.07-.585.178-.082.352-.157.522-.228.146-.187.286-.341.416-.46.33-.067.647-.122.949-.167.767.035 1.568.091 2.379.159 1.124-.038 2.487-.087 3.088-.116A10.657 10.657 0 0 0 10.705 0C8.157 0 5.82.894 3.982 2.38l.369.054c.073.183.156.381.254.603.032.113.067.234.105.359a9.074 9.074 0 0 0-.571.598 10.87 10.87 0 0 0-.114.321c-.142.08-.28.162-.418.244-.09.299-.173.615-.25.943a95.257 95.257 0 0 0-.497-.069 23.47 23.47 0 0 1-.23-1.742c-.497.571-.94 1.191-1.309 1.86.055-.046.106-.091.162-.136.143.723.315 1.516.549 2.379-.47.303-.892.604-1.256.894a8.393 8.393 0 0 0-.69.717C.035 9.831 0 10.264 0 10.704c0 .913.127 1.795.341 2.642.19.069.397.137.627.204.35.4.749.806 1.188 1.207.096.287.198.569.305.846.57.355 1.193.699 1.842 1.022a24.089 24.089 0 0 0-.46 1.594l-.74.018a10.66 10.66 0 0 0 7.603 3.173c5.812 0 10.532-4.636 10.689-10.411-.039-.151-.07-.298-.112-.451z"/></svg>